# xmcd
#
# Track frame offsets:
#	150
#	27612
#	55577
#	86950
#	116835
#	136122
#	160527
#	191212
#	196655
#	226332
#	248197
#	271965
#	301545
#
# Disc length: 4378 seconds
#
# Revision: 2
# Processed by: cddbd v1.5.1PL0 Copyright (c) Steve Scherf et al.
# Submitted via: audiograbber 1.83.01
#
DISCID=a711180d
DTITLE=Teena Marie - LoverGirl: The Teena Marie Story
DYEAR=1997
DGENRE=R&B
TTITLE0=Just Us Two
TTITLE1=Ooo La La La (12" Version)
TTITLE2=The Sugar Shack (Extended Club Mix)
TTITLE3=If I Were A Bell
TTITLE4=Stop The World
TTITLE5=My Dear Mr. Gay
TTITLE6=Shadow Boxing
TTITLE7=Light
TTITLE8=Out On A Limb
TTITLE9=Lovergirl
TTITLE10=Dear Lover
TTITLE11=Fix It (12" Version)
TTITLE12=Cassanova Brown
EXTD=
EXTT0=
EXTT1=
EXTT2=
EXTT3=
EXTT4=
EXTT5=
EXTT6=
EXTT7=
EXTT8=
EXTT9=
EXTT10=
EXTT11=
EXTT12=
PLAYORDER=
